# xmcd
#
# Track frame offsets:
#	150
#	11998
#	21968
#	32388
#	45254
#	57679
#	73534
#	83853
#	95705
#	104102
#	115321
#	127314
#	134404
#	142029
#
# Disc length: 2052 seconds
#
# Revision: 1
# Processed by: cddbd v1.5.2PL0 Copyright (c) Steve Scherf et al.
# Submitted via: audiograbber 1.83.01
#
DISCID=d408020e
DTITLE=Cash Nelson Jennings Kristofferson - The Highwaymen CD1
DYEAR=2009
DGENRE=Country
TTITLE0=Highwayman (JC)
TTITLE1=On the road again (WN)
TTITLE2=Mental Revenge (WJ)
TTITLE3=Jesse Younger (KK)
TTITLE4=I walk the line (JC)
TTITLE5=South of the border (WN)
TTITLE6=White Lightning (WJ)
TTITLE7=Home of the blues (JC)
TTITLE8=Slow down old world (WN)
TTITLE9=Sally was a good old girl (WJ)
TTITLE10=Jesus was a capricorn (KK)
TTITLE11=Casey Jones (JC)
TTITLE12=If you've got the money I've got the time (WN)
TTITLE13=Don't think twice, it' all right (WJ)
EXTD=CD 1 of 3  Golden Star Box
EXTT0=
EXTT1=
EXTT2=
EXTT3=
EXTT4=
EXTT5=
EXTT6=
EXTT7=
EXTT8=
EXTT9=
EXTT10=
EXTT11=
EXTT12=
EXTT13=Bad Quality
PLAYORDER=
